<?xml version="1.0" encoding="UTF-8" standalone="no"?>
<!DOCTYPE svg PUBLIC "-//W3C//DTD SVG 1.1//EN" "http://www.w3.org/Graphics/SVG/1.1/DTD/svg11.dtd">
<!-- Created with Vectornator (http://vectornator.io/) -->
<svg height="100%" stroke-miterlimit="10" style="fill-rule:nonzero;clip-rule:evenodd;stroke-linecap:round;stroke-linejoin:round;" version="1.1" viewBox="0 0 530 530" width="100%" xml:space="preserve" xmlns="http://www.w3.org/2000/svg" xmlns:vectornator="http://vectornator.io" xmlns:xlink="http://www.w3.org/1999/xlink">
<defs/>
<g id="Untitled" vectornator:layerName="Untitled">
<g opacity="1">
<path d="M387.509 160.103C387.509 127.615 374.603 96.455 351.63 73.482C328.657 50.509 297.497 37.603 265.009 37.603C232.521 37.603 201.361 50.509 178.388 73.482C155.415 96.455 142.509 127.615 142.509 160.103C142.509 192.591 155.415 223.751 178.388 246.724C201.361 269.697 232.521 282.603 265.009 282.603C297.486 282.568 328.626 269.65 351.591 246.685C374.556 223.72 387.474 192.58 387.509 160.103ZM178.849 219.955L186.033 215.807C190.181 213.373 191.588 208.049 189.185 203.881C186.779 199.717 181.463 198.275 177.283 200.65L170.135 204.779C164.772 193.486 161.494 181.314 160.455 168.853L168.76 168.853C173.592 168.853 177.51 164.935 177.51 160.103C177.51 155.271 173.592 151.353 168.76 151.353L160.455 151.353C161.494 138.892 164.772 126.72 170.135 115.427L177.283 119.556C181.463 121.931 186.779 120.489 189.185 116.325C191.588 112.157 190.181 106.833 186.033 104.399L178.849 100.251C186.002 90.001 194.908 81.095 205.158 73.942L209.307 81.1256C210.873 83.8326 213.764 85.5045 216.893 85.5006C218.432 85.5045 219.943 85.0944 221.268 84.317C225.447 81.9029 226.881 76.5592 224.471 72.376L220.342 65.2276C231.635 59.8643 243.803 56.587 256.26 55.5479L256.26 63.8526C256.26 68.6846 260.178 72.6026 265.01 72.6026C269.842 72.6026 273.76 68.6846 273.76 63.8526L273.76 55.5479C286.221 56.587 298.389 59.8604 309.686 65.2159L305.557 72.3721L305.557 72.376C303.147 76.5596 304.58 81.9033 308.76 84.317C310.088 85.0944 311.596 85.5045 313.135 85.5006C316.264 85.5045 319.158 83.8326 320.721 81.1256L324.869 73.942C335.123 81.0904 344.029 90.001 351.181 100.251L343.998 104.399L343.994 104.399C341.97 105.552 340.486 107.466 339.877 109.716C339.267 111.962 339.576 114.364 340.744 116.38C341.908 118.399 343.83 119.872 346.084 120.466C348.338 121.063 350.736 120.735 352.744 119.556L359.9 115.427L359.904 115.427C365.256 126.724 368.529 138.896 369.564 151.353L361.259 151.353C356.427 151.353 352.509 155.271 352.509 160.103C352.509 164.935 356.427 168.853 361.259 168.853L369.564 168.853C368.537 181.31 365.279 193.478 359.939 204.779L352.783 200.65L352.779 200.65C350.771 199.47 348.373 199.142 346.119 199.74C343.865 200.333 341.943 201.806 340.779 203.826C339.611 205.841 339.299 208.244 339.912 210.49C340.521 212.74 342.006 214.654 344.029 215.806L351.213 219.954C344.064 230.204 335.158 239.114 324.904 246.263L320.755 239.08C318.322 234.931 312.997 233.525 308.833 235.928C304.665 238.334 303.224 243.65 305.599 247.83L309.728 254.986L309.732 254.99C298.42 260.349 286.232 263.622 273.759 264.658L273.759 256.353C273.759 251.521 269.841 247.603 265.009 247.603C260.177 247.603 256.259 251.521 256.259 256.353L256.259 264.658C243.798 263.619 231.626 260.341 220.333 254.978L224.462 247.83C226.837 243.65 225.395 238.333 221.231 235.928C217.063 233.525 211.739 234.932 209.305 239.08L205.157 246.263C194.907 239.111 186.001 230.204 178.848 219.954L178.849 219.955Z" fill="#000000" fill-rule="nonzero" opacity="1" stroke="none"/>
<path d="M221.259 168.853L249.943 168.853C252.646 173.564 257.389 176.748 262.775 177.462C268.158 178.177 273.572 176.345 277.412 172.505C281.252 168.666 283.084 163.252 282.369 157.868C281.655 152.482 278.471 147.739 273.76 145.036L273.76 98.8524C273.76 94.0204 269.842 90.1024 265.01 90.1024C260.178 90.1024 256.26 94.0204 256.26 98.8524L256.26 145.036C253.643 146.56 251.467 148.736 249.944 151.353L221.26 151.353C216.428 151.353 212.51 155.271 212.51 160.103C212.51 164.935 216.428 168.853 221.26 168.853L221.259 168.853Z" fill="#000000" fill-rule="nonzero" opacity="1" stroke="none"/>
<path d="M518.759 405.103L483.759 405.103L483.759 361.353C483.759 359.033 482.838 356.806 481.197 355.166C479.556 353.525 477.33 352.603 475.009 352.603L273.759 352.603L273.759 317.158C328.904 314.088 378.409 282.361 404.229 233.545C430.053 184.725 428.417 125.945 399.925 78.635C371.429 31.323 320.234 2.397 265.005 2.397C209.776 2.397 158.585 31.323 130.085 78.635C101.593 125.944 99.9557 184.725 125.78 233.545C151.604 282.361 201.108 314.088 256.25 317.158L256.25 352.603L55 352.603C50.168 352.603 46.25 356.521 46.25 361.353L46.25 405.103L11.25 405.103C6.418 405.103 2.5 409.021 2.5 413.853L2.5 518.853C2.5 521.173 3.42188 523.4 5.0625 525.041C6.70312 526.681 8.9297 527.603 11.25 527.603L98.75 527.603C101.07 527.603 103.297 526.681 104.938 525.041C106.578 523.4 107.5 521.173 107.5 518.853L107.5 413.853C107.5 411.533 106.578 409.306 104.938 407.666C103.297 406.025 101.07 405.103 98.75 405.103L63.75 405.103L63.75 370.103L186.25 370.103L186.25 405.103L151.25 405.103C146.418 405.103 142.5 409.021 142.5 413.853L142.5 518.853C142.5 521.173 143.422 523.4 145.062 525.041C146.703 526.681 148.93 527.603 151.25 527.603L238.75 527.603C241.07 527.603 243.297 526.681 244.938 525.041C246.578 523.4 247.5 521.173 247.5 518.853L247.5 413.853C247.5 411.533 246.578 409.306 244.938 407.666C243.297 406.025 241.07 405.103 238.75 405.103L203.75 405.103L203.75 370.103L326.25 370.103L326.25 405.103L291.25 405.103C286.418 405.103 282.5 409.021 282.5 413.853L282.5 518.853C282.5 521.173 283.422 523.4 285.062 525.041C286.703 526.681 288.93 527.603 291.25 527.603L378.75 527.603C381.07 527.603 383.297 526.681 384.938 525.041C386.578 523.4 387.5 521.173 387.5 518.853L387.5 413.853C387.5 411.533 386.578 409.306 384.938 407.666C383.297 406.025 381.07 405.103 378.75 405.103L343.75 405.103L343.75 370.103L466.25 370.103L466.25 405.103L431.25 405.103C426.418 405.103 422.5 409.021 422.5 413.853L422.5 518.853C422.5 521.173 423.422 523.4 425.062 525.041C426.703 526.681 428.93 527.603 431.25 527.603L518.75 527.603C521.07 527.603 523.297 526.681 524.938 525.041C526.578 523.4 527.5 521.173 527.5 518.853L527.5 413.853C527.5 411.533 526.578 409.306 524.938 407.666C523.297 406.025 521.07 405.103 518.75 405.103L518.759 405.103ZM125.009 160.103C125.009 122.974 139.759 87.365 166.013 61.107C192.271 34.853 227.88 20.103 265.009 20.103C302.138 20.103 337.747 34.853 364.005 61.107C390.259 87.365 405.009 122.974 405.009 160.103C405.009 197.232 390.259 232.841 364.005 259.099C337.747 285.353 302.138 300.103 265.009 300.103C227.892 300.06 192.31 285.294 166.064 259.048C139.818 232.802 125.052 197.22 125.009 160.103ZM90.0094 510.103L20.0094 510.103L20.0094 422.603L90.0094 422.603L90.0094 510.103ZM230.009 510.103L160.009 510.103L160.009 422.603L230.009 422.603L230.009 510.103ZM370.009 510.103L300.009 510.103L300.009 422.603L370.009 422.603L370.009 510.103ZM510.009 510.103L440.009 510.103L440.009 422.603L510.009 422.603L510.009 510.103Z" fill="#000000" fill-rule="nonzero" opacity="1" stroke="none"/>
<path d="M72.5094 475.103L37.5094 475.103C32.6774 475.103 28.7594 479.021 28.7594 483.853C28.7594 488.685 32.6774 492.603 37.5094 492.603L72.5094 492.603C77.3414 492.603 81.2594 488.685 81.2594 483.853C81.2594 479.021 77.3414 475.103 72.5094 475.103Z" fill="#000000" fill-rule="nonzero" opacity="1" stroke="none"/>
<path d="M28.7594 448.853C28.7594 451.173 29.6813 453.4 31.3219 455.041C32.9625 456.681 35.1891 457.603 37.5094 457.603L72.5094 457.603C77.3414 457.603 81.2594 453.685 81.2594 448.853C81.2594 444.021 77.3414 440.103 72.5094 440.103L37.5094 440.103C32.6774 440.103 28.7594 444.021 28.7594 448.853Z" fill="#000000" fill-rule="nonzero" opacity="1" stroke="none"/>
<path d="M212.509 475.103L177.509 475.103C172.677 475.103 168.759 479.021 168.759 483.853C168.759 488.685 172.677 492.603 177.509 492.603L212.509 492.603C217.341 492.603 221.259 488.685 221.259 483.853C221.259 479.021 217.341 475.103 212.509 475.103Z" fill="#000000" fill-rule="nonzero" opacity="1" stroke="none"/>
<path d="M168.759 448.853C168.759 451.173 169.681 453.4 171.322 455.041C172.963 456.681 175.189 457.603 177.509 457.603L212.509 457.603C217.341 457.603 221.259 453.685 221.259 448.853C221.259 444.021 217.341 440.103 212.509 440.103L177.509 440.103C172.677 440.103 168.759 444.021 168.759 448.853Z" fill="#000000" fill-rule="nonzero" opacity="1" stroke="none"/>
<path d="M352.509 475.103L317.509 475.103C312.677 475.103 308.759 479.021 308.759 483.853C308.759 488.685 312.677 492.603 317.509 492.603L352.509 492.603C357.341 492.603 361.259 488.685 361.259 483.853C361.259 479.021 357.341 475.103 352.509 475.103Z" fill="#000000" fill-rule="nonzero" opacity="1" stroke="none"/>
<path d="M308.759 448.853C308.759 451.173 309.681 453.4 311.322 455.041C312.963 456.681 315.189 457.603 317.509 457.603L352.509 457.603C357.341 457.603 361.259 453.685 361.259 448.853C361.259 444.021 357.341 440.103 352.509 440.103L317.509 440.103C312.677 440.103 308.759 444.021 308.759 448.853Z" fill="#000000" fill-rule="nonzero" opacity="1" stroke="none"/>
<path d="M492.509 475.103L457.509 475.103C452.677 475.103 448.759 479.021 448.759 483.853C448.759 488.685 452.677 492.603 457.509 492.603L492.509 492.603C497.341 492.603 501.259 488.685 501.259 483.853C501.259 479.021 497.341 475.103 492.509 475.103Z" fill="#000000" fill-rule="nonzero" opacity="1" stroke="none"/>
<path d="M448.759 448.853C448.759 451.173 449.681 453.4 451.322 455.041C452.963 456.681 455.189 457.603 457.509 457.603L492.509 457.603C497.341 457.603 501.259 453.685 501.259 448.853C501.259 444.021 497.341 440.103 492.509 440.103L457.509 440.103C452.677 440.103 448.759 444.021 448.759 448.853Z" fill="#000000" fill-rule="nonzero" opacity="1" stroke="none"/>
</g>
</g>
</svg>
