<?xml version="1.0" encoding="UTF-8"?>
<svg width="700pt" height="700pt" version="1.1" viewBox="0 0 700 700" xmlns="http://www.w3.org/2000/svg" xmlns:xlink="http://www.w3.org/1999/xlink">
 <defs>
  <symbol id="u" overflow="visible">
   <path d="m23.453-1.4062c-1.2109 0.625-2.4688 1.1016-3.7812 1.4219s-2.6836 0.48438-4.1094 0.48438c-4.25 0-7.6172-1.1875-10.094-3.5625-2.4805-2.375-3.7188-5.5977-3.7188-9.6719 0-4.0703 1.2383-7.2969 3.7188-9.6719 2.4766-2.3828 5.8438-3.5781 10.094-3.5781 1.4258 0 2.7969 0.16406 4.1094 0.48438 1.3125 0.32422 2.5703 0.79688 3.7812 1.4219v5.2812c-1.2188-0.83203-2.4219-1.4414-3.6094-1.8281-1.1875-0.38281-2.4375-0.57812-3.75-0.57812-2.3438 0-4.1875 0.75-5.5312 2.25s-2.0156 3.5742-2.0156 6.2188c0 2.6367 0.67188 4.7109 2.0156 6.2188 1.3438 1.5 3.1875 2.25 5.5312 2.25 1.3125 0 2.5625-0.19141 3.75-0.57812 1.1875-0.39453 2.3906-1.0078 3.6094-1.8438z"/>
  </symbol>
  <symbol id="d" overflow="visible">
   <path d="m17.156-13.922c-0.53125-0.25-1.0625-0.42969-1.5938-0.54688-0.53125-0.125-1.0625-0.1875-1.5938-0.1875-1.5742 0-2.7891 0.50781-3.6406 1.5156-0.84375 1-1.2656 2.4453-1.2656 4.3281v8.8125h-6.125v-19.141h6.125v3.1406c0.78125-1.25 1.6797-2.1602 2.7031-2.7344 1.0195-0.58203 2.2422-0.875 3.6719-0.875 0.19531 0 0.41406 0.011719 0.65625 0.03125 0.23828 0.023437 0.58594 0.058594 1.0469 0.10938z"/>
  </symbol>
  <symbol id="a" overflow="visible">
   <path d="m22.047-9.625v1.75h-14.312c0.15625 1.4375 0.67578 2.5156 1.5625 3.2344 0.88281 0.71094 2.125 1.0625 3.7188 1.0625 1.2891 0 2.6094-0.1875 3.9531-0.5625 1.3516-0.38281 2.7422-0.96094 4.1719-1.7344v4.7188c-1.4492 0.54297-2.8984 0.95312-4.3438 1.2344-1.4492 0.28125-2.8984 0.42188-4.3438 0.42188-3.4609 0-6.1523-0.87891-8.0781-2.6406-1.918-1.7578-2.875-4.2266-2.875-7.4062 0-3.125 0.94141-5.582 2.8281-7.375 1.8828-1.7891 4.4766-2.6875 7.7812-2.6875 3.0078 0 5.4141 0.90625 7.2188 2.7188 1.8125 1.8125 2.7188 4.2344 2.7188 7.2656zm-6.2969-2.0312c0-1.1641-0.33984-2.1016-1.0156-2.8125-0.67969-0.70703-1.5625-1.0625-2.6562-1.0625-1.1797 0-2.1406 0.33594-2.8906 1-0.74219 0.66797-1.1992 1.625-1.375 2.875z"/>
  </symbol>
  <symbol id="e" overflow="visible">
   <path d="m11.516-8.6094c-1.2734 0-2.2305 0.21875-2.875 0.65625-0.64844 0.42969-0.96875 1.0625-0.96875 1.9062 0 0.77344 0.25781 1.375 0.78125 1.8125 0.51953 0.4375 1.2383 0.65625 2.1562 0.65625 1.1562 0 2.125-0.41016 2.9062-1.2344 0.78906-0.82031 1.1875-1.8516 1.1875-3.0938v-0.70312zm9.3438-2.3125v10.922h-6.1562v-2.8438c-0.82422 1.168-1.75 2.0156-2.7812 2.5469-1.0234 0.53125-2.2656 0.79688-3.7344 0.79688-1.9805 0-3.5898-0.57812-4.8281-1.7344-1.2422-1.1562-1.8594-2.6602-1.8594-4.5156 0-2.2383 0.76953-3.8789 2.3125-4.9219 1.5508-1.0508 3.9766-1.5781 7.2812-1.5781h3.6094v-0.48438c0-0.96875-0.38672-1.6758-1.1562-2.125-0.76172-0.44531-1.9492-0.67188-3.5625-0.67188-1.3125 0-2.5391 0.13281-3.6719 0.39062-1.125 0.26172-2.1719 0.65234-3.1406 1.1719v-4.6562c1.3125-0.32031 2.6289-0.56641 3.9531-0.73438 1.3203-0.16406 2.6445-0.25 3.9688-0.25 3.4453 0 5.9375 0.68359 7.4688 2.0469 1.5312 1.3672 2.2969 3.5781 2.2969 6.6406z"/>
  </symbol>
  <symbol id="c" overflow="visible">
   <path d="m9.625-24.578v5.4375h6.2969v4.375h-6.2969v8.125c0 0.88672 0.17578 1.4844 0.53125 1.7969 0.35156 0.3125 1.0508 0.46875 2.0938 0.46875h3.1406v4.375h-5.2344c-2.418 0-4.1328-0.50391-5.1406-1.5156-1.0117-1.0078-1.5156-2.7188-1.5156-5.125v-8.125h-3.0312v-4.375h3.0312v-5.4375z"/>
  </symbol>
  <symbol id="l" overflow="visible">
   <path d="m15.969-16.344v-10.25h6.1406v26.594h-6.1406v-2.7656c-0.84375 1.125-1.7773 1.9531-2.7969 2.4844-1.0117 0.51953-2.1836 0.78125-3.5156 0.78125-2.3555 0-4.293-0.9375-5.8125-2.8125-1.5117-1.875-2.2656-4.2852-2.2656-7.2344 0-2.957 0.75391-5.375 2.2656-7.25 1.5195-1.875 3.457-2.8125 5.8125-2.8125 1.3203 0 2.4922 0.26562 3.5156 0.79688 1.0195 0.53125 1.9531 1.3555 2.7969 2.4688zm-4.0469 12.391c1.3125 0 2.3125-0.47266 3-1.4219 0.69531-0.95703 1.0469-2.3477 1.0469-4.1719 0-1.8203-0.35156-3.2109-1.0469-4.1719-0.6875-0.95703-1.6875-1.4375-3-1.4375-1.293 0-2.2891 0.48047-2.9844 1.4375-0.6875 0.96094-1.0312 2.3516-1.0312 4.1719 0 1.8242 0.34375 3.2148 1.0312 4.1719 0.69531 0.94922 1.6914 1.4219 2.9844 1.4219z"/>
  </symbol>
  <symbol id="k" overflow="visible">
   <path d="m13.125-3.9531c1.3125 0 2.3125-0.47266 3-1.4219 0.6875-0.95703 1.0312-2.3477 1.0312-4.1719 0-1.8203-0.34375-3.2109-1.0312-4.1719-0.6875-0.95703-1.6875-1.4375-3-1.4375s-2.3203 0.48438-3.0156 1.4531c-0.69922 0.96094-1.0469 2.3438-1.0469 4.1562 0 1.8047 0.34766 3.1875 1.0469 4.1562 0.69531 0.96094 1.7031 1.4375 3.0156 1.4375zm-4.0625-12.391c0.84375-1.1133 1.7734-1.9375 2.7969-2.4688 1.0312-0.53125 2.207-0.79688 3.5312-0.79688 2.3633 0 4.3008 0.9375 5.8125 2.8125 1.5195 1.875 2.2812 4.293 2.2812 7.25 0 2.9492-0.76172 5.3594-2.2812 7.2344-1.5117 1.875-3.4492 2.8125-5.8125 2.8125-1.3242 0-2.5-0.26562-3.5312-0.79688-1.0234-0.53125-1.9531-1.3516-2.7969-2.4688v2.7656h-6.125v-26.594h6.125z"/>
  </symbol>
  <symbol id="j" overflow="visible">
   <path d="m0.42188-19.141h6.125l5.1406 12.984 4.375-12.984h6.125l-8.0469 20.953c-0.8125 2.125-1.7617 3.6094-2.8438 4.4531-1.0742 0.85156-2.4922 1.2812-4.25 1.2812h-3.5469v-4.0156h1.9219c1.0312 0 1.7812-0.16797 2.25-0.5 0.47656-0.32422 0.84766-0.91406 1.1094-1.7656l0.17188-0.53125z"/>
  </symbol>
  <symbol id="i" overflow="visible">
   <path d="m3.2188-25.516h6.5781v25.516h-6.5781z"/>
  </symbol>
  <symbol id="h" overflow="visible">
   <path d="m18.406-18.547v5c-0.83594-0.57031-1.6719-0.99219-2.5156-1.2656-0.83594-0.28125-1.6992-0.42188-2.5938-0.42188-1.7109 0-3.043 0.5-4 1.5-0.94922 1-1.4219 2.3984-1.4219 4.1875 0 1.7812 0.47266 3.1719 1.4219 4.1719 0.95703 1 2.2891 1.5 4 1.5 0.95703 0 1.8633-0.14062 2.7188-0.42188 0.86328-0.28906 1.6602-0.71875 2.3906-1.2812v5.0156c-0.96094 0.35547-1.9336 0.61719-2.9219 0.79688-0.98047 0.17578-1.9648 0.26562-2.9531 0.26562-3.4609 0-6.1641-0.88281-8.1094-2.6562-1.9492-1.7695-2.9219-4.2344-2.9219-7.3906s0.97266-5.6172 2.9219-7.3906c1.9453-1.7812 4.6484-2.6719 8.1094-2.6719 1 0 1.9844 0.089844 2.9531 0.26562 0.97656 0.17969 1.9531 0.44531 2.9219 0.79688z"/>
  </symbol>
  <symbol id="b" overflow="visible">
   <path d="m12.047-15.234c-1.3555 0-2.3906 0.49219-3.1094 1.4688-0.71094 0.96875-1.0625 2.375-1.0625 4.2188 0 1.8359 0.35156 3.2422 1.0625 4.2188 0.71875 0.96875 1.7539 1.4531 3.1094 1.4531 1.332 0 2.3516-0.48438 3.0625-1.4531 0.70703-0.97656 1.0625-2.3828 1.0625-4.2188 0-1.8438-0.35547-3.25-1.0625-4.2188-0.71094-0.97656-1.7305-1.4688-3.0625-1.4688zm0-4.375c3.2891 0 5.8633 0.89062 7.7188 2.6719 1.8516 1.7812 2.7812 4.2461 2.7812 7.3906 0 3.1367-0.92969 5.5938-2.7812 7.375-1.8555 1.7812-4.4297 2.6719-7.7188 2.6719-3.3047 0-5.8867-0.89062-7.75-2.6719-1.8672-1.7812-2.7969-4.2383-2.7969-7.375 0-3.1445 0.92969-5.6094 2.7969-7.3906 1.8633-1.7812 4.4453-2.6719 7.75-2.6719z"/>
  </symbol>
  <symbol id="g" overflow="visible">
   <path d="m22.188-11.656v11.656h-6.1562v-8.9219c0-1.6562-0.039062-2.7969-0.10938-3.4219-0.074219-0.625-0.20312-1.082-0.39062-1.375-0.24219-0.40625-0.5625-0.71875-0.96875-0.9375s-0.875-0.32812-1.4062-0.32812c-1.2734 0-2.2734 0.49609-3 1.4844-0.73047 0.98047-1.0938 2.3398-1.0938 4.0781v9.4219h-6.125v-19.141h6.125v2.7969c0.91406-1.1133 1.8906-1.9375 2.9219-2.4688 1.0391-0.53125 2.1914-0.79688 3.4531-0.79688 2.207 0 3.8828 0.68359 5.0312 2.0469 1.1445 1.3555 1.7188 3.3242 1.7188 5.9062z"/>
  </symbol>
  <symbol id="t" overflow="visible">
   <path d="m3.2188-25.516h6.5781v20.547h11.547v4.9688h-18.125z"/>
  </symbol>
  <symbol id="f" overflow="visible">
   <path d="m2.7344-7.4531v-11.688h6.1562v1.9062c0 1.043-0.007813 2.3516-0.015625 3.9219-0.011719 1.5625-0.015625 2.6055-0.015625 3.125 0 1.543 0.035156 2.6523 0.10938 3.3281 0.082031 0.67969 0.21875 1.168 0.40625 1.4688 0.25781 0.40625 0.58594 0.71875 0.98438 0.9375 0.40625 0.21094 0.875 0.3125 1.4062 0.3125 1.2695 0 2.2695-0.48828 3-1.4688 0.72656-0.97656 1.0938-2.3359 1.0938-4.0781v-9.4531h6.125v19.141h-6.125v-2.7656c-0.92969 1.1172-1.9062 1.9375-2.9375 2.4688s-2.168 0.79688-3.4062 0.79688c-2.2109 0-3.8906-0.67578-5.0469-2.0312-1.1562-1.3633-1.7344-3.3359-1.7344-5.9219z"/>
  </symbol>
  <symbol id="s" overflow="visible">
   <path d="m2.9375-26.594h6.125v14.484l7.0312-7.0312h7.1094l-9.3438 8.7812 10.078 10.359h-7.4062l-7.4688-7.9844v7.9844h-6.125z"/>
  </symbol>
  <symbol id="r" overflow="visible">
   <path d="m15.531-26.594v4.0156h-3.375c-0.86719 0-1.4688 0.15625-1.8125 0.46875s-0.51562 0.85938-0.51562 1.6406v1.3281h5.2344v4.375h-5.2344v14.766h-6.125v-14.766h-3.0312v-4.375h3.0312v-1.3281c0-2.082 0.57812-3.625 1.7344-4.625 1.1641-1 2.9727-1.5 5.4219-1.5z"/>
  </symbol>
  <symbol id="q" overflow="visible">
   <path d="m20.672-15.969c0.78125-1.1758 1.7031-2.0781 2.7656-2.7031s2.2344-0.9375 3.5156-0.9375c2.1953 0 3.8672 0.68359 5.0156 2.0469 1.1562 1.3555 1.7344 3.3242 1.7344 5.9062v11.656h-6.1562v-9.9844c0.007813-0.14453 0.015625-0.29688 0.015625-0.45312 0.007812-0.16406 0.015625-0.39453 0.015625-0.6875 0-1.3516-0.19922-2.332-0.59375-2.9375-0.39844-0.61328-1.043-0.92188-1.9375-0.92188-1.1562 0-2.0547 0.48047-2.6875 1.4375-0.63672 0.96094-0.96484 2.3398-0.98438 4.1406v9.4062h-6.1406v-9.9844c0-2.1133-0.18359-3.4727-0.54688-4.0781-0.36719-0.61328-1.0156-0.92188-1.9531-0.92188-1.1797 0-2.0859 0.48438-2.7188 1.4531-0.63672 0.96094-0.95312 2.3281-0.95312 4.1094v9.4219h-6.1562v-19.141h6.1562v2.7969c0.75-1.082 1.6094-1.8945 2.5781-2.4375 0.97656-0.55078 2.0547-0.82812 3.2344-0.82812 1.3125 0 2.4727 0.32422 3.4844 0.96875 1.0195 0.63672 1.7891 1.5273 2.3125 2.6719z"/>
  </symbol>
  <symbol id="p" overflow="visible">
   <path d="m22.188-11.656v11.656h-6.1562v-8.8906c0-1.6758-0.039062-2.8281-0.10938-3.4531-0.074219-0.625-0.20312-1.082-0.39062-1.375-0.24219-0.40625-0.5625-0.71875-0.96875-0.9375s-0.875-0.32812-1.4062-0.32812c-1.2734 0-2.2734 0.49609-3 1.4844-0.73047 0.98047-1.0938 2.3398-1.0938 4.0781v9.4219h-6.125v-26.594h6.125v10.25c0.91406-1.1133 1.8906-1.9375 2.9219-2.4688 1.0391-0.53125 2.1914-0.79688 3.4531-0.79688 2.207 0 3.8828 0.68359 5.0312 2.0469 1.1445 1.3555 1.7188 3.3242 1.7188 5.9062z"/>
  </symbol>
  <symbol id="o" overflow="visible">
   <path d="m3.2188-25.516h7.3438l9.2812 17.5v-17.5h6.2344v25.516h-7.3438l-9.2812-17.5v17.5h-6.2344z"/>
  </symbol>
  <symbol id="n" overflow="visible">
   <path d="m3.2188-25.516h10.922c3.2383 0 5.7266 0.72656 7.4688 2.1719 1.7383 1.4375 2.6094 3.4922 2.6094 6.1562 0 2.6797-0.87109 4.7344-2.6094 6.1719-1.7422 1.4375-4.2305 2.1562-7.4688 2.1562h-4.3438v8.8594h-6.5781zm6.5781 4.7656v7.125h3.6406c1.2695 0 2.2539-0.30469 2.9531-0.92188 0.69531-0.625 1.0469-1.5039 1.0469-2.6406 0-1.1445-0.35156-2.0234-1.0469-2.6406-0.69922-0.61328-1.6836-0.92188-2.9531-0.92188z"/>
  </symbol>
  <symbol id="m" overflow="visible">
   <path d="m2.9375-19.141h6.125v18.797c0 2.5625-0.62109 4.5156-1.8594 5.8594-1.2305 1.3516-3.0117 2.0312-5.3438 2.0312h-3.0156v-4.0156h1.0469c1.1641 0 1.9609-0.26172 2.3906-0.78125 0.4375-0.52344 0.65625-1.5547 0.65625-3.0938zm0-7.4531h6.125v4.9844h-6.125z"/>
  </symbol>
 </defs>
 <g>
  <path d="m427 294c0-3.8672-3.1328-7-7-7h-42.992c-2.5469-9.7891-10.215-17.461-20.008-20.008v-49.992c0-3.8672-3.1328-7-7-7s-7 3.1328-7 7v49.992c-12.043 3.1328-21 13.996-21 27.008 0 15.438 12.562 28 28 28 13.008 0 23.875-8.957 27.008-21h42.992c3.8672 0 7-3.1328 7-7zm-77 14c-7.7227 0-14-6.2773-14-14s6.2773-14 14-14 14 6.2773 14 14-6.2773 14-14 14z"/>
  <path d="m497 294c0-81.059-65.941-147-147-147s-147 65.941-147 147c0 39.848 16.242 77.918 44.738 105.51l-43.086 50.973c-1.207 1.4258-1.793 3.2734-1.625 5.1328 0.16406 1.8633 1.0664 3.5781 2.5 4.7695l16.871 14c1.3047 1.082 2.8906 1.6172 4.4727 1.6172 1.7969 0 3.5898-0.69141 4.9492-2.0508l49.883-49.883c20.941 11.047 44.414 16.934 68.297 16.934 23.895 0 47.383-5.8906 68.297-16.934l49.883 49.883c1.3594 1.3594 3.1523 2.0508 4.9492 2.0508 1.582 0 3.168-0.53516 4.4727-1.6133l16.871-14c1.4375-1.1914 2.3398-2.9102 2.5-4.7695 0.16406-1.8594-0.42188-3.707-1.625-5.1328l-43.082-50.973c28.5-27.609 44.734-65.672 44.734-105.51zm-270.57 165.54-6.5273-5.4141 38.312-45.324c1.1211 0.90234 2.3398 1.6719 3.4883 2.5391 1.6289 1.2305 3.2578 2.4336 4.9336 3.5898 0.86328 0.59766 1.6719 1.2773 2.5469 1.8555zm57.441-50.176c-7.7773-4.418-15.121-9.6836-21.855-15.68-28.609-25.238-45.02-61.57-45.02-99.684 0-73.336 59.664-133 133-133s133 59.664 133 133c0 38.113-16.41 74.445-45.047 99.707-6.7109 5.9727-14.055 11.242-21.871 15.68-19.977 11.523-42.828 17.613-66.082 17.613s-46.105-6.0898-66.125-17.637zm189.69 50.176-42.754-42.754c0.87891-0.57422 1.6836-1.2578 2.5469-1.8516 1.6836-1.1602 3.3164-2.3672 4.9492-3.6016 1.1445-0.86328 2.3594-1.6328 3.4766-2.5312l38.312 45.324z"/>
  <path d="m428.69 383.18s0.003906-0.003907 0.003906-0.003907c0.003907-0.003906 0.011719-0.007812 0.015626-0.015625 2.332-2.0586 4.4727-4.2852 6.6211-6.5039 0.79688-0.82031 1.6836-1.5664 2.4531-2.4102 1.6914-1.8477 3.1875-3.8398 4.7539-5.7812 1.0742-1.3359 2.2539-2.5977 3.2695-3.9766 0.9375-1.2695 1.7148-2.6406 2.5977-3.9414 1.4648-2.1641 2.9922-4.2969 4.3125-6.5508 0.26562-0.44922 0.46094-0.9375 0.71875-1.3906 1.8047-3.1797 3.5234-6.4023 5.0273-9.7305 0.29297-0.64453 0.49219-1.3281 0.77344-1.9805 3.0195-7.0117 5.4492-14.281 7.0781-21.773 0.3125-1.4414 0.44922-2.9219 0.71094-4.375 0.47656-2.6797 1.0117-5.3438 1.3047-8.0586 0.4375-4.1953 0.66797-8.4297 0.66797-12.688 0-65.617-53.383-119-119-119s-119 53.383-119 119c0 34.066 14.691 66.57 40.258 89.133 5.9023 5.3125 12.508 10.059 19.594 14.09 17.891 10.32 38.344 15.777 59.148 15.777s41.258-5.457 59.109-15.758c3.5586-2.0234 6.9844-4.2188 10.262-6.5703s6.3945-4.8594 9.3203-7.4922zm-26.535 1.918c-31.543 18.191-72.73 18.211-104.35-0.019531-6.25-3.5547-12.031-7.707-17.238-12.391-22.605-19.957-35.57-48.637-35.57-78.688 0-57.898 47.102-105 105-105s105 47.102 105 105c0 3.7578-0.20312 7.4922-0.60156 11.191-2.7891 25.895-15.195 50.039-35.02 67.539-5.1562 4.6367-10.938 8.7891-17.223 12.367z"/>
  <path d="m510.8 186.31c11.512-14.73 16.594-33.07 14.312-51.629-2.2812-18.559-11.648-35.121-26.379-46.629-14.73-11.508-33.062-16.605-51.625-14.316-18.559 2.2812-35.121 11.648-46.633 26.379-1.1406 1.4648-1.6562 3.3203-1.4336 5.1641 0.22656 1.8438 1.1758 3.5156 2.6406 4.6602l99.289 77.574c1.2812 1.0039 2.8008 1.4883 4.3086 1.4883 2.0781 0 4.1406-0.92188 5.5195-2.6914zm-94.641-82.824c8.7773-8.7617 20.148-14.316 32.656-15.852 14.836-1.8359 29.516 2.2461 41.301 11.453 11.785 9.207 19.281 22.457 21.105 37.305 1.5352 12.504-1.1055 24.883-7.4805 35.52z"/>
  <path d="m517 234.38c-2-3.3125-6.3047-4.375-9.6094-2.3789-3.3086 1.9961-4.375 6.3008-2.3789 9.6094 17.418 28.887 17.418 75.883 0 104.77-1.9961 3.3125-0.92969 7.6172 2.3789 9.6094 1.1289 0.68359 2.375 1.0078 3.6055 1.0078 2.3711 0 4.6875-1.207 6-3.3828 20.16-33.434 20.16-85.801 0.003906-119.23z"/>
  <path d="m541.26 216.53c-2.1953-3.1875-6.5547-3.9883-9.7344-1.793-3.1875 2.1953-3.9844 6.5508-1.793 9.7344 26.422 38.34 26.422 100.72 0 139.05-2.1953 3.1836-1.3945 7.5391 1.793 9.7344 1.2148 0.84375 2.5938 1.2422 3.9648 1.2422 2.2266 0 4.4141-1.0547 5.7695-3.0273 29.445-42.719 29.445-112.23 0-154.95z"/>
  <path d="m300.95 105.28c0.22656-1.8477-0.28906-3.7031-1.4336-5.1641-11.512-14.73-28.07-24.102-46.633-26.379-18.574-2.2812-36.895 2.8086-51.625 14.316-14.73 11.508-24.102 28.07-26.379 46.629-2.2812 18.559 2.8047 36.898 14.312 51.629 1.3828 1.7656 3.4453 2.6875 5.5234 2.6875 1.5078 0 3.0273-0.48438 4.3047-1.4844l99.289-77.574c1.4648-1.1445 2.4141-2.8203 2.6406-4.6602zm-104.69 66.629c-6.375-10.637-9.0156-23.016-7.4805-35.52 1.8242-14.848 9.3203-28.098 21.105-37.305 9.9414-7.7695 21.938-11.883 34.359-11.883 2.3008 0 4.6172 0.14062 6.9375 0.42578 12.508 1.5352 23.879 7.0938 32.656 15.852z"/>
  <path d="m192.62 232c-3.3125-1.9961-7.6172-0.93359-9.6094 2.3789-20.16 33.43-20.16 85.801 0 119.23 1.3125 2.1797 3.625 3.3867 6 3.3867 1.2305 0 2.4766-0.32422 3.6094-1.0039 3.3086-1.9961 4.375-6.3008 2.3789-9.6094-17.418-28.887-17.418-75.883 0-104.77 1.9961-3.3125 0.92969-7.6172-2.3789-9.6133z"/>
  <path d="m170.26 224.47c2.1953-3.1836 1.3945-7.5391-1.793-9.7344-3.1797-2.1914-7.5391-1.3945-9.7344 1.793-29.441 42.719-29.441 112.23 0 154.95 1.3594 1.9688 3.5469 3.0234 5.7734 3.0234 1.3711 0 2.75-0.39844 3.9648-1.2383 3.1875-2.1953 3.9844-6.5508 1.793-9.7344-26.426-38.34-26.426-100.71-0.003906-139.05z"/>
  <use x="70" y="665" xlink:href="#u"/>
  <use x="95.6875" y="665" xlink:href="#d"/>
  <use x="112.945312" y="665" xlink:href="#a"/>
  <use x="136.683594" y="665" xlink:href="#e"/>
  <use x="160.304688" y="665" xlink:href="#c"/>
  <use x="177.035156" y="665" xlink:href="#a"/>
  <use x="200.773438" y="665" xlink:href="#l"/>
  <use x="238.011719" y="665" xlink:href="#k"/>
  <use x="263.0625" y="665" xlink:href="#j"/>
  <use x="298.0625" y="665" xlink:href="#i"/>
  <use x="311.085938" y="665" xlink:href="#h"/>
  <use x="331.832031" y="665" xlink:href="#b"/>
  <use x="355.878906" y="665" xlink:href="#g"/>
  <use x="392.980469" y="665" xlink:href="#t"/>
  <use x="415.28125" y="665" xlink:href="#e"/>
  <use x="438.902344" y="665" xlink:href="#f"/>
  <use x="463.820312" y="665" xlink:href="#s"/>
  <use x="70" y="700" xlink:href="#r"/>
  <use x="85.226562" y="700" xlink:href="#d"/>
  <use x="102.488281" y="700" xlink:href="#b"/>
  <use x="126.53125" y="700" xlink:href="#q"/>
  <use x="175.1875" y="700" xlink:href="#c"/>
  <use x="191.917969" y="700" xlink:href="#p"/>
  <use x="216.835938" y="700" xlink:href="#a"/>
  <use x="252.757812" y="700" xlink:href="#o"/>
  <use x="282.050781" y="700" xlink:href="#b"/>
  <use x="306.097656" y="700" xlink:href="#f"/>
  <use x="331.011719" y="700" xlink:href="#g"/>
  <use x="368.117188" y="700" xlink:href="#n"/>
  <use x="393.765625" y="700" xlink:href="#d"/>
  <use x="411.027344" y="700" xlink:href="#b"/>
  <use x="435.074219" y="700" xlink:href="#m"/>
  <use x="447.070312" y="700" xlink:href="#a"/>
  <use x="470.808594" y="700" xlink:href="#h"/>
  <use x="491.554687" y="700" xlink:href="#c"/>
 </g>
</svg>
