<?xml version="1.0" encoding="UTF-8" standalone="no"?>
<!DOCTYPE svg PUBLIC "-//W3C//DTD SVG 1.1//EN" "http://www.w3.org/Graphics/SVG/1.1/DTD/svg11.dtd">
<!-- Created with Vectornator (http://vectornator.io/) -->
<svg height="100%" stroke-miterlimit="10" style="fill-rule:nonzero;clip-rule:evenodd;stroke-linecap:round;stroke-linejoin:round;" version="1.1" viewBox="0 0 1024 1024" width="100%" xml:space="preserve" xmlns="http://www.w3.org/2000/svg" xmlns:xlink="http://www.w3.org/1999/xlink">
<defs/>
<g id="Layer-1">
<path d="M678.002 983.75C710.25 1001.75 747.505 1012 787 1012C911.246 1012 1012 911.246 1012 787C1012 747.498 1001.75 710.25 983.75 678.002C1002 626 1012 570.252 1012 512C1012 236 788 12 512 12C236 12 12 236 12 512C12 788 236 1012 512 1012C570.252 1012 626 1002 678.002 983.75ZM787 612C883.498 612 962 690.502 962 787C962 883.498 883.498 962 787 962C690.502 962 612 883.498 612 787C612 690.502 690.502 612 787 612ZM946.752 628.497C956.755 591.249 962 552.249 962 512.001C962 263.751 760.25 62.0006 512 62.0006C263.75 62.0006 62.0002 263.751 62.0002 512.001C62.0002 760.251 263.75 962.001 512 962.001C552.248 962.001 591.5 956.748 628.497 946.752C587.495 906.002 562 849.5 562 787C562 662.754 662.754 562 787 562C849.5 562 906.002 587.502 946.752 628.497L946.752 628.497ZM537.002 911.997L537.002 861.997C537.002 848.248 525.75 836.997 512.002 836.997C498.253 836.997 487.002 848.248 487.002 861.997L487.002 911.997C487.002 925.746 498.253 936.997 512.002 936.997C525.75 936.997 537.002 925.746 537.002 911.997ZM691.25 800.745L741.25 875.745C746 882.749 753.75 886.997 762.002 886.997C770.254 886.997 778.255 882.749 782.754 875.745L882.754 725.745C890.503 714.243 887.253 698.743 875.75 690.993C864.248 683.244 848.748 686.494 840.998 697.997L761.75 816.747L732.502 772.997C724.752 761.494 709.252 758.495 697.75 765.993C686.248 773.743 683.248 789.243 690.747 800.745L691.25 800.745ZM487 441.245C458.004 451.492 437 479.247 437 511.997C437 520.995 438.5 529.498 441.499 537.499L221.249 717.749C210.5 726.496 209 742.247 217.747 752.995C226.495 763.744 242.246 765.244 252.994 756.497L473.244 576.247C484.495 583.25 497.992 587.247 512.244 587.247C553.74 587.247 587.244 553.744 587.244 512.247C587.244 479.497 566.24 451.749 537.244 441.495L537.244 262.245C537.244 248.497 525.992 237.245 512.244 237.245C498.495 237.245 487.244 248.497 487.244 262.245L487.244 441.495L487 441.245ZM512 486.997C525.749 486.997 537 498.248 537 511.997C537 525.746 525.749 536.997 512 536.997C498.251 536.997 487 525.746 487 511.997C487 498.248 498.251 486.997 512 486.997ZM112 536.997L162 536.997C175.749 536.997 187 525.746 187 511.997C187 498.248 175.749 486.997 162 486.997L112 486.997C98.2514 486.997 87 498.248 87 511.997C87 525.746 98.2514 536.997 112 536.997ZM912 486.997L862 486.997C848.251 486.997 837 498.248 837 511.997C837 525.746 848.251 536.997 862 536.997L912 536.997C925.749 536.997 937 525.746 937 511.997C937 498.248 925.749 486.997 912 486.997ZM512.25 86.997C498.501 86.997 487.25 98.2484 487.25 111.997L487.25 161.997C487.25 175.746 498.501 186.997 512.25 186.997C525.999 186.997 536.998 175.746 536.998 161.997L536.998 111.997C536.998 98.2484 525.998 86.997 512.25 86.997Z" fill="#000000" fill-rule="evenodd" opacity="1" stroke="none"/>
</g>
</svg>
