<?xml version="1.0" encoding="UTF-8" standalone="no"?>
<!DOCTYPE svg PUBLIC "-//W3C//DTD SVG 1.1//EN" "http://www.w3.org/Graphics/SVG/1.1/DTD/svg11.dtd">
<!-- Created with Vectornator (http://vectornator.io/) -->
<svg height="100%" stroke-miterlimit="10" style="fill-rule:nonzero;clip-rule:evenodd;stroke-linecap:round;stroke-linejoin:round;" version="1.1" viewBox="0 0 530 530" width="100%" xml:space="preserve" xmlns="http://www.w3.org/2000/svg" xmlns:vectornator="http://vectornator.io" xmlns:xlink="http://www.w3.org/1999/xlink">
<defs/>
<g id="Untitled" vectornator:layerName="Untitled">
<g opacity="1">
<path d="M160.146 142.501C127.658 142.501 96.4981 155.407 73.5251 178.38C50.5521 201.353 37.6461 232.513 37.6461 265.001C37.6461 297.489 50.5521 328.649 73.5251 351.622C96.4981 374.595 127.658 387.501 160.146 387.501C192.634 387.501 223.794 374.595 246.767 351.622C269.74 328.649 282.646 297.489 282.646 265.001C282.611 232.524 269.693 201.384 246.728 178.419C223.763 155.454 192.623 142.536 160.146 142.501ZM219.998 351.161L215.85 343.978C213.416 339.829 208.092 338.423 203.924 340.825C199.76 343.232 198.318 348.548 200.693 352.727L204.822 359.876C193.529 365.239 181.357 368.516 168.896 369.556L168.896 361.251C168.896 356.419 164.978 352.501 160.146 352.501C155.314 352.501 151.396 356.419 151.396 361.251L151.396 369.556C138.935 368.516 126.763 365.239 115.47 359.876L119.599 352.727C121.974 348.548 120.533 343.231 116.368 340.825C112.2 338.423 106.876 339.829 104.442 343.978L100.294 351.161C90.0441 344.009 81.1381 335.102 73.9851 324.852L81.1687 320.704C85.3171 318.27 86.7234 312.946 84.321 308.778C81.9148 304.614 76.5983 303.172 72.419 305.547L65.2706 309.676C59.9073 298.383 56.63 286.211 55.5909 273.75L63.8956 273.75C68.7276 273.75 72.6456 269.832 72.6456 265C72.6456 260.168 68.7276 256.25 63.8956 256.25L55.5909 256.25C56.63 243.789 59.9073 231.617 65.2706 220.324L72.419 224.453C76.5987 226.828 81.9151 225.387 84.321 221.223C86.7233 217.055 85.3171 211.731 81.1687 209.297L73.9851 205.148C81.1374 194.898 90.0441 185.992 100.294 178.839L104.442 186.023C106.009 188.73 108.899 190.402 112.028 190.398C113.567 190.402 115.079 189.992 116.403 189.214C120.583 186.8 122.017 181.457 119.606 177.273L115.478 170.125C126.771 164.762 138.939 161.484 151.396 160.445L151.396 168.75C151.396 173.582 155.314 177.5 160.146 177.5C164.978 177.5 168.896 173.582 168.896 168.75L168.896 160.445C181.357 161.484 193.529 164.762 204.822 170.125L200.693 177.273C198.282 181.457 199.716 186.801 203.896 189.214C205.224 189.992 206.732 190.402 208.271 190.398C211.4 190.402 214.294 188.73 215.857 186.023L220.005 178.839C230.255 185.992 239.161 194.898 246.317 205.148L239.133 209.297L239.13 209.297C237.106 210.449 235.622 212.363 235.012 214.613C234.403 216.859 234.712 219.262 235.88 221.277C237.044 223.297 238.965 224.769 241.219 225.363C243.473 225.961 245.872 225.633 247.88 224.453L255.028 220.324L255.032 220.324C260.391 231.617 263.665 243.789 264.7 256.25L256.395 256.25C251.563 256.25 247.645 260.168 247.645 265C247.645 269.832 251.563 273.75 256.395 273.75L264.7 273.75C263.661 286.211 260.383 298.383 255.02 309.676L247.872 305.547C243.692 303.172 238.376 304.614 235.97 308.778C233.567 312.946 234.974 318.27 239.122 320.704L246.306 324.852C239.153 335.102 230.247 344.008 219.997 351.161L219.998 351.161Z" fill="#000000" fill-rule="nonzero" opacity="1" stroke="none"/>
<path d="M518.896 116.251L477.884 116.251C476.669 112.771 475.267 109.361 473.685 106.032L502.681 77.0243C506.099 73.6063 506.099 68.0673 502.681 64.6533L465.521 27.4653C462.103 24.0473 456.564 24.0473 453.15 27.4653L424.127 56.4613C420.791 54.8793 417.377 53.4769 413.897 52.2543L413.897 11.2503C413.897 8.93005 412.975 6.70345 411.334 5.06285C409.694 3.42225 407.467 2.50035 405.147 2.50035L352.647 2.50035C347.815 2.50035 343.897 6.41835 343.897 11.2503L343.897 52.2543C340.416 53.477 337.002 54.8793 333.667 56.4613L304.671 27.4653C301.198 24.1801 295.769 24.1801 292.3 27.4653L255.112 64.6253C251.694 68.0433 251.694 73.5823 255.112 76.9963L284.12 106.004L284.116 106.004C282.526 109.34 281.124 112.762 279.909 116.25L238.897 116.25C234.409 116.274 230.686 119.723 230.315 124.196C216.463 117.27 201.663 112.446 186.397 109.872L186.397 90.0006L195.147 90.0006C197.467 90.0006 199.694 89.0788 201.334 87.4381C202.975 85.7975 203.897 83.5709 203.897 81.2506L203.897 63.7506C203.897 56.7897 201.131 50.1096 196.209 45.1886C191.288 40.2676 184.607 37.5011 177.647 37.5011L142.647 37.5011C135.687 37.5011 129.006 40.2667 124.085 45.1886C119.164 50.1105 116.398 56.7906 116.398 63.7506L116.398 81.2506C116.398 83.5709 117.32 85.7975 118.96 87.4381C120.601 89.0787 122.828 90.0006 125.148 90.0006L133.898 90.0006L133.898 109.872C90.433 117.102 51.992 142.224 27.918 179.13C3.84397 216.032-3.66003 261.337 7.23797 304.03C18.133 346.725 46.426 382.893 85.242 403.749C124.054 424.604 169.836 428.229 211.452 413.749L227.405 413.749C228.628 417.225 230.03 420.639 231.612 423.968L202.616 452.976C199.198 456.394 199.198 461.933 202.616 465.347L239.804 502.535C243.273 505.82 248.702 505.82 252.175 502.535L281.171 473.539C284.507 475.121 287.921 476.523 291.401 477.746L291.401 518.75C291.401 521.07 292.323 523.297 293.963 524.937C295.604 526.578 297.831 527.5 300.151 527.5L352.651 527.5C354.971 527.5 357.198 526.578 358.838 524.937C360.479 523.297 361.401 521.07 361.401 518.75L361.401 477.746C364.881 476.523 368.295 475.121 371.631 473.539L400.627 502.535C404.045 505.953 409.584 505.953 412.998 502.535L450.186 465.347C453.604 461.933 453.604 456.394 450.186 452.976L421.19 423.968C422.772 420.64 424.174 417.229 425.389 413.749L466.401 413.749C468.721 413.749 470.948 412.827 472.589 411.186C474.229 409.546 475.151 407.319 475.151 404.999L475.151 352.499C475.151 350.178 474.229 347.952 472.589 346.311C470.948 344.671 468.721 343.749 466.401 343.749L425.389 343.749C424.174 340.268 422.772 336.858 421.19 333.53L450.186 304.522C453.604 301.104 453.604 295.565 450.186 292.151L413.901 255.862L413.901 250.244C417.381 249.022 420.795 247.619 424.131 246.037L453.127 275.033C456.545 278.451 462.084 278.451 465.498 275.033L502.686 237.845C506.104 234.431 506.104 228.892 502.686 225.474L473.69 196.466C475.272 193.138 476.674 189.728 477.889 186.247L518.901 186.247C521.221 186.247 523.448 185.326 525.089 183.685C526.729 182.044 527.651 179.818 527.651 177.497L527.651 124.997C527.651 122.677 526.729 120.451 525.089 118.81C523.448 117.169 521.221 116.247 518.901 116.247L518.896 116.251ZM133.896 63.7513C133.896 58.9193 137.814 55.0013 142.646 55.0013L177.646 55.0013C179.966 55.0013 182.193 55.9232 183.834 57.5638C185.474 59.2045 186.396 61.431 186.396 63.7513L186.396 72.5013L133.896 72.5013L133.896 63.7513ZM151.396 90.0013L168.896 90.0013L168.896 107.946C165.982 107.778 163.103 107.501 160.146 107.501C157.189 107.501 154.31 107.782 151.396 107.946L151.396 90.0013ZM20.1461 265.001C20.1461 227.872 34.8961 192.263 61.1501 166.005C87.4081 139.751 123.017 125.001 160.146 125.001C197.275 125.001 232.884 139.751 259.142 166.005C285.396 192.263 300.146 227.872 300.146 265.001C300.146 302.13 285.396 337.739 259.142 363.997C232.884 390.251 197.275 405.001 160.146 405.001C123.029 404.958 87.4471 390.192 61.2011 363.946C34.9551 337.7 20.1891 302.118 20.1461 265.001ZM326.396 335.001C337.998 335.001 349.126 339.611 357.334 347.813C365.537 356.02 370.146 367.149 370.146 378.751C370.146 390.353 365.537 401.481 357.334 409.689C349.127 417.892 337.998 422.501 326.396 422.501C314.794 422.501 303.666 417.892 295.458 409.689C287.255 401.482 282.646 390.353 282.646 378.751C282.662 367.153 287.275 356.032 295.474 347.829C303.677 339.63 314.798 335.017 326.396 335.001ZM404.271 325.665C401.513 328.423 400.916 332.673 402.802 336.087C406.095 342.017 408.681 348.314 410.509 354.845C411.564 358.642 415.029 361.267 418.97 361.252L457.646 361.252L457.646 396.252L418.97 396.252C415.04 396.248 411.591 398.869 410.537 402.658C408.708 409.189 406.122 415.486 402.826 421.416C400.939 424.83 401.54 429.08 404.298 431.838L431.626 459.166L406.81 483.978L379.482 456.626C376.725 453.868 372.475 453.27 369.06 455.157C363.135 458.454 356.841 461.04 350.31 462.864C346.51 463.919 343.885 467.384 343.896 471.325L343.896 510.001L308.896 510.001L308.896 471.325C308.896 467.391 306.275 463.942 302.482 462.891C295.951 461.067 289.658 458.481 283.732 455.18C280.318 453.294 276.068 453.895 273.31 456.653L245.982 483.977L221.17 459.165L248.522 431.837C251.284 429.079 251.885 424.822 249.991 421.407C246.694 415.485 244.104 409.196 242.284 402.665C242.003 401.689 241.557 400.771 240.964 399.954C249.643 394.735 257.804 388.696 265.331 381.919C266.217 399.087 274.28 415.087 287.546 426.021C300.812 436.955 318.062 441.81 335.081 439.4C352.101 436.994 367.327 427.545 377.038 413.361C386.749 399.177 390.054 381.564 386.143 364.826C382.233 348.088 371.471 333.76 356.483 325.346C341.491 316.932 323.659 315.201 307.331 320.581C314.116 302.835 317.612 284.003 317.647 265.003C317.628 259.155 317.28 253.312 316.616 247.503L343.897 247.503L343.897 286.179C343.897 290.112 346.518 293.561 350.311 294.612C356.842 296.436 363.135 299.022 369.061 302.323C372.475 304.21 376.725 303.608 379.483 300.85L406.811 273.522L431.627 298.338L404.271 325.665ZM510.151 168.755L471.475 168.755C467.545 168.752 464.096 171.373 463.041 175.162C461.213 181.693 458.627 187.99 455.331 193.92C453.444 197.334 454.045 201.584 456.803 204.342L484.131 231.67L459.315 256.482L431.987 229.13C429.229 226.372 424.979 225.774 421.565 227.661C415.639 230.958 409.346 233.544 402.815 235.368C399.014 236.423 396.389 239.887 396.401 243.829L396.401 259.192L371.631 283.962L371.631 283.966C368.295 282.384 364.881 280.981 361.401 279.759L361.401 238.755C361.401 236.434 360.479 234.208 358.839 232.567C357.198 230.927 354.971 230.005 352.651 230.005L313.592 230.005C304.627 190.817 281.041 156.528 247.651 134.142L247.651 133.755L286.327 133.755C290.257 133.759 293.706 131.138 294.761 127.349C296.589 120.818 299.175 114.521 302.472 108.591C304.358 105.177 303.757 100.927 300.999 98.1687L273.675 70.8407L298.487 46.0287L325.815 73.3807C328.573 76.1385 332.823 76.7362 336.237 74.8495C342.163 71.5526 348.456 68.9667 354.987 67.1425C358.788 66.0878 361.413 62.623 361.401 58.6816L361.401 20.0056L396.401 20.0056L396.401 58.6816C396.401 62.6152 399.022 66.0644 402.815 67.1152C409.346 68.9394 415.639 71.5254 421.565 74.8261C424.979 76.7128 429.229 76.1113 431.987 73.3534L459.315 46.0294L484.127 70.8414L456.775 98.1694C454.017 100.927 453.42 105.177 455.306 108.591C458.599 114.521 461.185 120.818 463.013 127.349C464.068 131.146 467.533 133.771 471.474 133.756L510.15 133.756L510.151 168.755Z" fill="#000000" fill-rule="nonzero" opacity="1" stroke="none"/>
<path d="M378.896 98.7513C364.97 98.7513 351.619 104.283 341.771 114.126C331.927 123.974 326.396 137.325 326.396 151.251C326.396 165.177 331.927 178.528 341.771 188.376C351.619 198.22 364.97 203.751 378.896 203.751C392.822 203.751 406.173 198.22 416.021 188.376C425.865 178.529 431.396 165.177 431.396 151.251C431.38 137.333 425.845 123.985 416.005 114.142C406.161 104.303 392.814 98.7673 378.896 98.7513ZM378.896 186.251C369.615 186.251 360.712 182.564 354.146 176.001C347.584 169.435 343.896 160.532 343.896 151.251C343.896 141.97 347.584 133.067 354.146 126.501C360.712 119.939 369.615 116.251 378.896 116.251C388.177 116.251 397.08 119.939 403.646 126.501C410.209 133.068 413.896 141.97 413.896 151.251C413.896 160.532 410.209 169.435 403.646 176.001C397.08 182.564 388.177 186.251 378.896 186.251Z" fill="#000000" fill-rule="nonzero" opacity="1" stroke="none"/>
<path d="M208.816 226.801L177.089 245.113C172.386 241.035 166.374 238.777 160.148 238.754C153.187 238.754 146.507 241.52 141.586 246.441C136.665 251.363 133.899 258.043 133.899 265.003C133.91 266.605 134.074 268.203 134.379 269.773L125.461 274.925L125.465 274.925C123.438 276.078 121.953 277.992 121.344 280.242C120.735 282.488 121.047 284.89 122.211 286.906C123.375 288.925 125.297 290.398 127.551 290.992C129.805 291.589 132.203 291.261 134.215 290.081L143.211 284.894L143.207 284.894C147.91 288.972 153.922 291.23 160.148 291.253C167.109 291.253 173.789 288.488 178.71 283.566C183.631 278.644 186.398 271.964 186.398 265.004C186.386 263.402 186.222 261.805 185.917 260.234L217.565 241.957C219.592 240.805 221.073 238.891 221.682 236.641C222.296 234.395 221.983 231.993 220.819 229.977C219.651 227.957 217.729 226.485 215.475 225.891C213.221 225.293 210.827 225.621 208.815 226.801L208.816 226.801ZM160.148 273.754C156.609 273.754 153.418 271.622 152.066 268.352C150.711 265.083 151.457 261.321 153.961 258.817C156.464 256.313 160.226 255.567 163.496 256.922C166.765 258.274 168.898 261.465 168.898 265.004C168.898 267.325 167.976 269.551 166.336 271.192C164.695 272.832 162.468 273.754 160.148 273.754Z" fill="#000000" fill-rule="nonzero" opacity="1" stroke="none"/>
</g>
</g>
</svg>
