<?xml version="1.0" encoding="UTF-8" standalone="no"?>
<!DOCTYPE svg PUBLIC "-//W3C//DTD SVG 1.1//EN" "http://www.w3.org/Graphics/SVG/1.1/DTD/svg11.dtd">
<!-- Created with Vectornator (http://vectornator.io/) -->
<svg height="100%" stroke-miterlimit="10" style="fill-rule:nonzero;clip-rule:evenodd;stroke-linecap:round;stroke-linejoin:round;" version="1.1" viewBox="0 0 372 372" width="100%" xml:space="preserve" xmlns="http://www.w3.org/2000/svg" xmlns:vectornator="http://vectornator.io" xmlns:xlink="http://www.w3.org/1999/xlink">
<defs/>
<g id="Untitled" vectornator:layerName="Untitled">
<g opacity="1">
<path d="M352.932 157.137L333.737 157.137C332.366 150.281 330.557 143.426 328.253 136.735L344.98 127.137C349.147 124.778 352.163 120.829 353.425 116.114C354.686 111.454 354.085 106.516 351.671 102.348L341.14 83.9731C336.203 75.3598 325.07 72.3441 316.183 77.2817L299.512 86.9887C294.742 81.559 289.75 76.6217 284.649 72.1797L294.41 55.3987C299.238 46.7346 296.274 35.5977 287.664 30.5547L269.29 19.9687C260.68 15.0859 249.602 18.0507 244.501 26.6601L234.903 43.4961C228.321 41.1367 221.465 39.2734 214.502 37.957L214.502 18.707C214.502 8.672 206.384 0.5 196.404 0.5L175.287 0.5C165.252 0.5 157.021 8.6719 157.021 18.707L157.021 37.957C150.111 39.3281 143.31 41.1914 136.729 43.4961L127.076 26.6601C122.139 18.1015 111.061 15.0861 102.233 19.9687L83.9169 30.5547C75.417 35.6016 72.4561 46.7347 77.335 55.4567L87.0419 72.1837C81.7216 76.7345 76.733 81.672 72.1241 86.9927L55.3393 77.2857C46.7847 72.4029 35.6515 75.3091 30.5506 83.9771L20.0197 102.352C15.0276 111.016 18.1018 122.207 26.7111 127.141L43.4408 136.739C41.1362 143.43 39.3276 150.286 37.9565 157.141L18.6558 157.137C8.67539 157.137 0.5 165.254 0.5 175.235L0.5 196.352C0.5 206.442 8.67179 214.614 18.6558 214.614L37.9605 214.614C39.3316 221.415 41.1402 228.216 43.4448 234.962L26.7181 244.614C18.1049 249.497 15.0382 260.684 20.0267 269.403L30.6126 287.719C35.6594 296.274 46.7374 299.235 55.4013 294.356L72.1281 284.594C76.7882 289.914 81.7256 294.848 87.0459 299.512L77.2843 316.297C72.3469 325.016 75.3116 336.152 83.9756 341.086L102.237 351.617C111.069 356.773 122.202 353.644 127.026 344.98L136.788 328.199C143.424 330.504 150.225 332.313 157.025 333.684L157.025 352.989C157.025 363.024 165.252 371.145 175.287 371.145L196.404 371.145C206.384 371.145 214.502 363.028 214.502 352.989L214.502 333.684C221.357 332.367 228.212 330.504 234.903 328.199L244.501 344.98C249.712 353.922 260.899 356.605 269.29 351.617L287.664 341.086C296.328 336.149 299.348 325.016 294.356 316.297L284.649 299.512C289.969 294.852 294.907 289.969 299.567 284.594L316.238 294.356C325.012 299.293 336.203 296.274 341.136 287.664L351.667 269.348C356.604 260.684 353.585 249.547 344.976 244.614L328.249 234.962C330.554 228.216 332.362 221.415 333.678 214.614L352.928 214.614C362.963 214.614 371.19 206.442 371.19 196.348L371.19 175.231C371.198 165.255 362.971 157.137 352.932 157.137L352.932 157.137ZM360.229 196.352C360.229 200.41 356.994 203.645 352.936 203.645L329.135 203.645C326.448 203.645 324.143 205.563 323.705 208.25C322.225 217.301 319.756 226.516 316.413 235.512C315.424 238.036 316.467 240.887 318.772 242.204L339.557 254.106C342.904 256.024 344.107 260.578 342.189 263.922L331.604 282.184C329.686 285.586 325.076 286.735 321.733 284.872L301.112 272.806C298.807 271.489 295.846 271.981 294.092 274.067C288.061 281.474 281.48 287.997 274.128 294.087C272.042 295.787 271.495 298.748 272.866 301.052L284.878 321.728C286.796 325.13 285.589 329.627 282.245 331.603L263.761 342.189C260.363 344.162 256.027 342.955 254.054 339.502L242.153 318.772C240.781 316.412 237.93 315.424 235.461 316.358C226.579 319.705 217.359 322.17 208.15 323.705C205.517 324.088 203.544 326.393 203.544 329.08L203.544 352.994C203.544 356.943 200.365 360.182 196.415 360.182L175.299 360.182C171.295 360.182 168.006 356.947 168.006 352.994L168.006 329.08C168.006 326.393 166.088 324.143 163.455 323.705C154.24 322.17 145.139 319.701 136.252 316.358C133.838 315.424 130.987 316.358 129.561 318.717L117.549 339.557C115.631 342.959 111.299 344.217 107.733 342.135L89.4671 331.549C86.0649 329.631 84.9164 325.131 86.8344 321.787L98.8462 301.057C100.163 298.753 99.6704 295.792 97.5845 294.093C90.1784 288.003 83.6547 281.48 77.6198 274.073C75.8659 271.991 72.9597 271.494 70.6004 272.811L49.9247 284.823C46.5263 286.799 42.085 285.592 40.1084 282.19L29.5225 263.928C27.6045 260.526 28.8116 256.03 32.1553 254.112L52.885 242.21C55.2444 240.893 56.2327 238.042 55.2991 235.522C51.9514 226.526 49.4867 217.311 48.0062 208.26C47.5687 205.573 45.264 203.655 42.5766 203.655L18.6589 203.647C14.655 203.647 11.4754 200.412 11.4754 196.354L11.4754 175.237C11.4754 171.342 14.7097 168.108 18.6589 168.108L42.5726 168.108C45.26 168.108 47.5647 166.131 48.0022 163.502C49.4827 154.288 51.9513 145.131 55.2951 136.244C56.2834 133.721 55.2404 130.869 52.881 129.553L32.1513 117.651C28.8075 115.733 27.6005 111.178 29.5185 107.835L40.0494 89.4596C42.0806 86.0573 46.522 84.8541 49.8657 86.7721L70.5954 98.7841C72.9509 100.155 75.9156 99.6083 77.6148 97.5224C83.5913 90.2294 90.2826 83.5384 97.5245 77.7214C99.6651 76.0222 100.212 73.0026 98.8409 70.7019L86.8291 50.0259C84.9111 46.5142 86.1142 42.0181 89.4618 40.0415L107.669 29.5105C111.18 27.5925 115.622 28.741 117.54 32.1433L129.551 52.9833C130.923 55.3427 133.829 56.331 136.352 55.3427C144.965 51.995 154.067 49.4716 163.446 47.9365C166.079 47.499 167.997 45.1943 167.997 42.5068L167.997 18.7018C167.997 14.6979 171.289 11.4635 175.289 11.4635L196.406 11.4635C200.41 11.4635 203.535 14.6432 203.535 18.7018L203.535 42.5068C203.535 45.1943 205.512 47.499 208.144 47.9365C217.578 49.4717 226.738 51.9404 235.347 55.3427C237.87 56.331 240.777 55.3427 242.148 52.9833L254 32.1983C256.027 28.7413 260.417 27.5381 263.87 29.5108L282.19 39.9878C285.589 42.019 286.796 46.5151 284.878 49.9722L272.866 70.7022C271.495 73.0069 272.042 76.0225 274.182 77.7217C281.038 83.2608 287.729 89.9517 294.147 97.5767C295.846 99.6079 298.807 100.155 301.112 98.7837L321.623 86.8267C325.135 84.8501 329.686 86.0611 331.608 89.4048L342.139 107.835C343.127 109.479 343.346 111.401 342.853 113.264C342.361 115.128 341.154 116.718 339.506 117.651L318.776 129.553C316.471 130.87 315.432 133.721 316.417 136.245C319.76 145.131 322.233 154.288 323.71 163.503C324.147 166.135 326.452 168.108 329.139 168.108L352.94 168.108C356.998 168.108 360.233 171.233 360.233 175.237L360.229 196.352Z" fill="#000000" fill-rule="nonzero" opacity="1" stroke="none"/>
<path d="M185.824 60.9968C116.997 60.9968 61.0556 116.993 61.0556 185.827C61.0556 254.655 117 310.657 185.824 310.657C254.655 310.657 310.652 254.657 310.652 185.827C310.652 116.997 254.657 60.9968 185.824 60.9968ZM180.34 92.9188C180.34 89.8485 182.808 87.4344 185.824 87.4344C188.894 87.4344 191.308 89.8485 191.308 92.9188L191.308 96.5946C191.308 99.6649 188.894 102.079 185.824 102.079C182.808 102.079 180.34 99.6649 180.34 96.5946L180.34 92.9188ZM102.736 218.629L99.1693 219.781C96.3178 220.66 93.1928 219.121 92.2592 216.215C91.3256 213.363 92.9194 210.293 95.7709 209.305L99.3372 208.152C102.189 207.219 105.259 208.812 106.247 211.719C107.181 214.57 105.587 217.641 102.736 218.629ZM106.247 159.941C105.314 162.851 102.189 164.382 99.3372 163.453L95.7709 162.355C92.9193 161.421 91.3295 158.296 92.2592 155.445C93.1928 152.538 96.2631 150.945 99.1693 151.878L102.677 153.031C105.587 153.964 107.181 157.089 106.247 159.941L106.247 159.941ZM137.837 261.241L135.642 264.202C133.884 266.671 130.486 267.217 128.017 265.409C125.548 263.651 125.001 260.198 126.81 257.784L129.005 254.768C130.759 252.299 134.161 251.753 136.63 253.561C139.099 255.319 139.646 258.772 137.837 261.241ZM136.63 118.091C134.216 119.845 130.759 119.353 129.005 116.884L126.81 113.868C125.001 111.399 125.548 108.001 128.017 106.189C130.486 104.431 133.888 104.982 135.696 107.396L137.837 110.411C139.646 112.884 139.099 116.337 136.63 118.091ZM191.313 278.731C191.313 281.746 188.899 284.215 185.829 284.215C182.813 284.215 180.345 281.746 180.345 278.731L180.345 275C180.345 271.985 182.813 269.516 185.829 269.516C188.899 269.516 191.313 271.985 191.313 275L191.313 278.731ZM230.36 149.071L206.391 172.985C213.465 184.34 210.121 198.38 199.973 205.618C191.637 211.594 180.887 211.434 172.934 206.442L170.903 208.524C168.763 210.665 165.255 210.665 163.114 208.524C160.974 206.383 160.974 202.876 163.114 200.735L165.255 198.594C158.564 187.789 161.196 173.528 171.673 166.016C179.899 160.145 190.595 160.145 198.711 165.192L222.57 141.278C224.711 139.138 228.218 139.138 230.359 141.278C232.5 143.423 232.5 146.934 230.359 149.071L230.36 149.071ZM243.688 265.401C241.219 267.209 237.817 266.663 236.008 264.194L233.867 261.233C232.059 258.764 232.606 255.311 235.074 253.553C237.488 251.745 240.945 252.292 242.699 254.76L244.895 257.776C246.703 260.19 246.156 263.647 243.688 265.401ZM244.895 113.861L242.699 116.876C240.941 119.345 237.488 119.837 235.074 118.083C232.606 116.33 232.059 112.873 233.813 110.404L236.008 107.388C237.817 104.974 241.219 104.427 243.688 106.181C246.156 107.994 246.703 111.392 244.895 113.861ZM279.449 216.201C278.516 219.052 275.445 220.697 272.539 219.767L268.973 218.615C266.121 217.681 264.531 214.556 265.461 211.705C266.395 208.799 269.52 207.205 272.371 208.138L275.937 209.291C278.789 210.22 280.379 213.349 279.449 216.201ZM279.449 155.431C280.383 158.282 278.793 161.407 275.937 162.341L272.371 163.439C269.52 164.372 266.395 162.837 265.461 159.927C264.527 157.075 266.121 153.95 268.973 153.017L272.539 151.865C275.391 150.935 278.516 152.525 279.449 155.431L279.449 155.431Z" fill="#000000" fill-rule="nonzero" opacity="1" stroke="none"/>
<path d="M178.094 174.967C171.621 179.572 170.36 189.061 176.395 195.205L176.45 195.205C176.45 195.26 176.45 195.26 176.504 195.314C181.164 199.974 188.406 200.416 193.613 196.685C199.593 192.408 201.019 184.017 196.683 178.04C192.406 172.056 184.071 170.685 178.094 174.966L178.094 174.967Z" fill="#000000" fill-rule="nonzero" opacity="1" stroke="none"/>
</g>
</g>
</svg>
